# xmcd
#
# Track frame offsets:
#	182
#	8550
#	17437
#	34532
#	46500
#	56265
#	69365
#	82480
#	95705
#	113932
#
# Disc length: 1690 seconds
#
# Revision: 0
# Processed by: cddbd v1.4PL0 Copyright (c) Steve Scherf et al.
# Submitted via: dBpowerAMP V4.0
#
DISCID=6f06980a
DTITLE=Christmas Cowboy Orchestra - Country Holiday Memories
DYEAR=1993
DGENRE=Christmas
TTITLE0=Jolly Old Saint Nick
TTITLE1=Up On The Housetop
TTITLE2=I Heard The Bells On Christmas Day
TTITLE3=Deck The Halls
TTITLE4=Rockin' Around The Christmas Tree
TTITLE5=Jingle Bells
TTITLE6=Hark! The Hearld Angels Sing
TTITLE7=We Wish You A Merry Christmas
TTITLE8=It Came Upon A Midnight Clear
TTITLE9=Silent Night
EXTD=
EXTT0=
EXTT1=
EXTT2=
EXTT3=
EXTT4=
EXTT5=
EXTT6=
EXTT7=
EXTT8=
EXTT9=
PLAYORDER=
